<?xml version="1.0" encoding="UTF-8" standalone="no"?><!DOCTYPE svg PUBLIC "-//W3C//DTD SVG 1.1//EN" "http://www.w3.org/Graphics/SVG/1.1/DTD/svg11.dtd"><svg width="100%" height="100%" viewBox="0 0 410 80" version="1.1" xmlns="http://www.w3.org/2000/svg" xmlns:xlink="http://www.w3.org/1999/xlink" xml:space="preserve" xmlns:serif="http://www.serif.com/" style="fill-rule:evenodd;clip-rule:evenodd;stroke-linejoin:round;stroke-miterlimit:2;"><rect id="Página-1" serif:id="Página 1" x="0" y="0" width="410" height="80" style="fill:none;"/><g id="Camada-1" serif:id="Camada 1"><g><path d="M42.28,40.801l17.894,-0.035c1.004,0.118 1.929,0.759 2.064,1.814c0.16,1.241 -0.309,1.994 -0.636,3.101c-2.273,7.689 -4.689,15.346 -7.087,23.001c-0.934,2.979 -1.255,6.065 -5.048,6.585l-17.251,0.01c-1.46,-0.158 -2.524,-1.192 -2.306,-2.717c0.192,-1.337 0.887,-2.897 1.279,-4.203c2.256,-7.521 4.468,-15.074 6.878,-22.542c0.789,-2.448 1.424,-4.33 4.213,-5.014" style="fill:#dcdbdc;fill-rule:nonzero;"/><path d="M54.182,3.225l17.359,-0.036c0.816,0.176 1.627,0.395 2.003,1.207c0.68,1.467 0.096,2.079 -0.308,3.441c-2.525,8.514 -5.036,17.298 -7.848,25.716c-0.734,2.196 -1.712,3.682 -4.154,4.137l-17.652,0.011c-0.937,-0.068 -1.982,-0.828 -2.073,-1.806c-0.03,-0.318 -0.039,-1.028 0.027,-1.32c0.118,-0.517 0.461,-1.253 0.618,-1.789c2.386,-8.128 4.827,-16.331 7.447,-24.38c0.844,-2.593 1.487,-4.689 4.581,-5.181" style="fill:#00ca3e;fill-rule:nonzero;"/><path d="M27.433,3.221l17.889,-0.023c0.811,0.188 1.605,0.639 1.882,1.461c0.257,0.763 0.059,1.398 -0.137,2.149c-0.446,1.718 -1.13,3.477 -1.645,5.175c-2.113,6.955 -4.193,13.949 -6.42,20.86c-0.178,0.554 -0.292,1.246 -0.492,1.781c-0.592,1.582 -1.87,2.654 -3.511,3.042l-18.264,0.003c-1.662,-0.422 -1.852,-1.553 -1.694,-3.113c2.734,-8.436 5.133,-16.998 7.777,-25.386c0.849,-2.695 1.44,-5.249 4.615,-5.949" style="fill:#fd6b1a;fill-rule:nonzero;"/><path d="M25.839,73.904c-0.668,0.669 -2.15,1.293 -3.107,1.373l-16.993,0c-1.014,-0.092 -2.127,-0.77 -2.309,-1.838c-0.191,-1.123 0.313,-1.928 0.613,-2.943c2.166,-7.326 4.438,-14.561 6.687,-21.798c0.985,-3.169 1.405,-7.447 5.439,-7.933l17.653,0.009c1.33,0.233 2.047,1.276 1.939,2.601c-3.056,9.822 -5.947,19.727 -9.165,29.481c-0.241,0.265 -0.531,0.822 -0.757,1.048" style="fill:#00b8de;fill-rule:nonzero;"/><path d="M112.98,55.058c1.867,0 3.398,-0.418 4.595,-1.257c1.196,-0.836 2.082,-2.046 2.656,-3.625c0.575,-1.579 0.862,-3.397 0.862,-5.456c0,-1.58 -0.156,-2.991 -0.467,-4.236c-0.312,-1.244 -0.778,-2.321 -1.4,-3.231c-0.622,-0.909 -1.424,-1.615 -2.405,-2.117c-0.982,-0.503 -2.142,-0.754 -3.482,-0.754c-1.723,0 -3.148,0.358 -4.271,1.077c-1.125,0.718 -1.964,1.735 -2.513,3.05c-0.551,1.318 -0.826,2.789 -0.826,4.416l0,3.59c0,1.723 0.299,3.219 0.897,4.486c0.598,1.27 1.436,2.262 2.513,2.98c1.077,0.718 2.357,1.077 3.841,1.077m4.81,9.764c-1.819,0 -3.518,-0.287 -5.097,-0.862c-1.579,-0.575 -2.92,-1.375 -4.021,-2.405c-1.101,-1.029 -1.891,-2.213 -2.369,-3.554l-0.646,0l-0.502,6.103l-11.559,0l0,-52.337l12.133,0l0,19.671l0.574,0c0.719,-2.057 2.118,-3.709 4.2,-4.954c2.082,-1.244 4.511,-1.866 7.287,-1.866c2.345,0 4.475,0.455 6.39,1.364c1.914,0.91 3.565,2.225 4.954,3.948c1.387,1.723 2.452,3.83 3.194,6.318c0.742,2.489 1.113,5.313 1.113,8.472c0,4.212 -0.646,7.826 -1.938,10.841c-1.292,3.015 -3.123,5.312 -5.492,6.892c-2.369,1.579 -5.11,2.369 -8.221,2.369" style="fill:#dcdbdc;fill-rule:nonzero;"/><path d="M158.712,54.986c1.483,0 2.775,-0.359 3.877,-1.077c1.1,-0.718 1.962,-1.842 2.585,-3.374c0.621,-1.532 0.933,-3.47 0.933,-5.815c0,-1.771 -0.18,-3.314 -0.539,-4.631c-0.359,-1.316 -0.861,-2.393 -1.507,-3.231c-0.646,-0.837 -1.413,-1.459 -2.298,-1.867c-0.886,-0.405 -1.902,-0.61 -3.051,-0.61c-1.484,0 -2.789,0.372 -3.913,1.113c-1.125,0.743 -1.986,1.866 -2.584,3.374c-0.599,1.508 -0.898,3.459 -0.898,5.852c0,1.771 0.168,3.314 0.503,4.63c0.334,1.317 0.826,2.394 1.472,3.231c0.646,0.838 1.435,1.448 2.369,1.831c0.933,0.383 1.95,0.574 3.051,0.574m0,9.835c-2.968,0 -5.648,-0.442 -8.041,-1.328c-2.394,-0.885 -4.463,-2.2 -6.21,-3.949c-1.747,-1.746 -3.087,-3.864 -4.02,-6.353c-0.933,-2.488 -1.4,-5.313 -1.4,-8.471c0,-4.021 0.765,-7.527 2.297,-10.518c1.531,-2.991 3.77,-5.336 6.713,-7.036c2.943,-1.698 6.497,-2.548 10.661,-2.548c2.967,0 5.647,0.443 8.041,1.327c2.392,0.887 4.451,2.202 6.174,3.949c1.723,1.748 3.051,3.853 3.985,6.318c0.933,2.466 1.4,5.301 1.4,8.508c0,3.973 -0.767,7.466 -2.298,10.481c-1.532,3.015 -3.758,5.373 -6.677,7.072c-2.92,1.699 -6.461,2.548 -10.625,2.548" style="fill:#dcdbdc;fill-rule:nonzero;"/><path d="M178.958,64.104l14.358,-19.815l-13.066,-18.953l14.431,0l6.03,9.979l0.789,1.436l0.432,0l0.789,-1.436l6.031,-9.979l13.783,0l-12.635,18.666l13.927,20.102l-14.286,0l-7.106,-11.343l-0.935,-1.652l-0.43,0l-0.933,1.652l-7.467,11.343l-13.712,0Z" style="fill:#dcdbdc;fill-rule:nonzero;"/><path d="M245.222,55.058c1.723,0 3.135,-0.37 4.236,-1.113c1.101,-0.742 1.927,-1.759 2.477,-3.051c0.549,-1.293 0.826,-2.752 0.826,-4.379l0,-3.59c0,-1.723 -0.3,-3.231 -0.898,-4.523c-0.599,-1.293 -1.436,-2.285 -2.513,-2.979c-1.077,-0.694 -2.358,-1.041 -3.84,-1.041c-1.867,0 -3.399,0.419 -4.595,1.256c-1.197,0.838 -2.082,2.035 -2.657,3.59c-0.574,1.556 -0.861,3.386 -0.861,5.492c0,2.059 0.275,3.865 0.826,5.42c0.549,1.556 1.4,2.764 2.548,3.626c1.149,0.861 2.632,1.292 4.451,1.292m-4.451,9.764c-2.346,0 -4.487,-0.456 -6.425,-1.364c-1.939,-0.909 -3.602,-2.226 -4.99,-3.949c-1.389,-1.723 -2.453,-3.829 -3.195,-6.317c-0.742,-2.488 -1.113,-5.314 -1.113,-8.472c0,-4.26 0.657,-7.885 1.975,-10.877c1.315,-2.991 3.146,-5.276 5.492,-6.856c2.344,-1.58 5.097,-2.369 8.256,-2.369c1.819,0 3.506,0.276 5.062,0.826c1.554,0.55 2.882,1.34 3.984,2.369c1.1,1.03 1.914,2.237 2.441,3.625l0.503,0l0,-19.671l12.133,0l0,52.337l-11.559,0l-0.431,-6.103l-0.646,0c-0.766,2.059 -2.19,3.71 -4.271,4.954c-2.083,1.244 -4.488,1.867 -7.216,1.867" style="fill:#dcdbdc;fill-rule:nonzero;"/><path d="M290.81,52.401c1.532,0 2.8,-0.31 3.805,-0.933c1.006,-0.621 1.747,-1.495 2.226,-2.62c0.477,-1.124 0.718,-2.405 0.718,-3.842l0,-3.158c0,-1.58 -0.264,-2.919 -0.79,-4.021c-0.528,-1.1 -1.281,-1.949 -2.262,-2.548c-0.981,-0.598 -2.117,-0.898 -3.409,-0.898c-1.723,0 -3.136,0.372 -4.237,1.113c-1.101,0.743 -1.914,1.795 -2.44,3.159c-0.528,1.364 -0.79,2.955 -0.79,4.774c0,1.772 0.251,3.339 0.753,4.702c0.503,1.365 1.281,2.418 2.334,3.16c1.052,0.742 2.416,1.112 4.092,1.112m-1.22,24.41c-3.543,0 -6.582,-0.503 -9.118,-1.508c-2.538,-1.005 -4.523,-2.43 -5.959,-4.272c-1.436,-1.843 -2.225,-3.96 -2.369,-6.353l11.702,0c0.096,0.718 0.419,1.339 0.969,1.866c0.55,0.527 1.257,0.945 2.118,1.257c0.862,0.31 1.867,0.466 3.016,0.466c1.962,0 3.505,-0.275 4.63,-0.825c1.124,-0.551 1.914,-1.34 2.369,-2.369c0.455,-1.029 0.682,-2.262 0.682,-3.698l0,-5.312l-0.574,0c-0.67,1.819 -1.987,3.291 -3.949,4.415c-1.963,1.125 -4.26,1.687 -6.892,1.687c-2.25,0 -4.284,-0.419 -6.102,-1.256c-1.82,-0.838 -3.387,-2.058 -4.702,-3.662c-1.318,-1.602 -2.334,-3.565 -3.052,-5.887c-0.717,-2.321 -1.076,-4.965 -1.076,-7.933c0,-3.972 0.621,-7.359 1.866,-10.159c1.244,-2.8 2.99,-4.941 5.241,-6.425c2.249,-1.483 4.857,-2.225 7.825,-2.225c2.441,0 4.667,0.538 6.677,1.615c2.01,1.077 3.398,2.573 4.164,4.487l0.646,0l0.359,-5.385l11.702,0l0,33.6c0,4.404 -0.825,7.92 -2.477,10.553c-1.65,2.632 -3.984,4.51 -6.999,5.636c-3.016,1.123 -6.582,1.687 -10.697,1.687" style="fill:#dcdbdc;fill-rule:nonzero;"/><path d="M318.091,64.104l0,-38.768l10.985,0l0.502,5.886l0.431,0c0.862,-2.44 2.213,-4.115 4.056,-5.025c1.842,-0.909 3.936,-1.364 6.282,-1.364l2.225,0l0,11.415c-0.286,0 -0.635,-0.011 -1.04,-0.036c-0.408,-0.024 -0.874,-0.036 -1.4,-0.036c-2.441,0 -4.38,0.348 -5.815,1.041c-1.437,0.695 -2.466,1.676 -3.088,2.944c-0.622,1.269 -0.958,2.836 -1.004,4.702l0,19.241l-12.134,0Z" style="fill:#dcdbdc;fill-rule:nonzero;"/><path d="M348.101,25.335l12.134,0l0,38.768l-12.134,0l0,-38.768Zm6.174,-3.877c-1.819,0 -3.327,-0.478 -4.523,-1.435c-1.197,-0.957 -1.795,-2.297 -1.795,-4.02c0,-1.723 0.598,-3.052 1.795,-3.985c1.196,-0.934 2.704,-1.4 4.523,-1.4c1.818,0 3.313,0.466 4.487,1.4c1.172,0.933 1.759,2.262 1.759,3.985c0,1.723 -0.587,3.063 -1.759,4.02c-1.174,0.957 -2.669,1.435 -4.487,1.435" style="fill:#dcdbdc;fill-rule:nonzero;"/><path d="M386.94,55.058c1.723,0 3.135,-0.37 4.236,-1.113c1.101,-0.742 1.927,-1.759 2.477,-3.051c0.549,-1.293 0.826,-2.752 0.826,-4.379l0,-3.59c0,-1.723 -0.3,-3.231 -0.898,-4.523c-0.599,-1.293 -1.436,-2.285 -2.513,-2.979c-1.077,-0.694 -2.358,-1.041 -3.84,-1.041c-1.867,0 -3.399,0.419 -4.595,1.256c-1.197,0.838 -2.082,2.035 -2.657,3.59c-0.574,1.556 -0.861,3.386 -0.861,5.492c0,2.059 0.275,3.865 0.826,5.42c0.549,1.556 1.4,2.764 2.548,3.626c1.149,0.861 2.632,1.292 4.451,1.292m-4.451,9.764c-2.346,0 -4.487,-0.456 -6.425,-1.364c-1.939,-0.909 -3.602,-2.226 -4.99,-3.949c-1.389,-1.723 -2.453,-3.829 -3.195,-6.317c-0.742,-2.488 -1.113,-5.314 -1.113,-8.472c0,-4.26 0.657,-7.885 1.975,-10.877c1.315,-2.991 3.146,-5.276 5.492,-6.856c2.344,-1.58 5.097,-2.369 8.256,-2.369c1.819,0 3.506,0.276 5.062,0.826c1.554,0.55 2.882,1.34 3.984,2.369c1.1,1.03 1.914,2.237 2.441,3.625l0.503,0l0,-19.671l12.133,0l0,52.337l-11.559,0l-0.431,-6.103l-0.646,0c-0.766,2.059 -2.19,3.71 -4.271,4.954c-2.083,1.244 -4.488,1.867 -7.216,1.867" style="fill:#dcdbdc;fill-rule:nonzero;"/></g></g></svg>